<?xml version="1.0" encoding="utf-8"?>
<!-- Generator: Adobe Illustrator 22.1.0, SVG Export Plug-In . SVG Version: 6.00 Build 0)  -->
<svg version="1.1" id="Capa_1" xmlns="http://www.w3.org/2000/svg" xmlns:xlink="http://www.w3.org/1999/xlink" x="0px" y="0px"
	 viewBox="0 0 400 400" style="enable-background:new 0 0 400 400;" xml:space="preserve">
<style type="text/css">
	.st0{fill:#FFFFFF;}
</style>
<g>
	<path d="M135.9,199.8c-22.1,0-40.2-18-40.2-40.2c0-22.1,18-40.2,40.2-40.2s40.2,18,40.2,40.2C176,181.8,158,199.8,135.9,199.8z"/>
	<path class="st0" d="M135.9,120c21.9,0,39.7,17.8,39.7,39.7s-17.8,39.7-39.7,39.7s-39.7-17.8-39.7-39.7S114,120,135.9,120
		 M135.9,119c-22.5,0-40.7,18.2-40.7,40.7c0,22.5,18.2,40.7,40.7,40.7c22.5,0,40.7-18.2,40.7-40.7C176.5,137.2,158.3,119,135.9,119
		L135.9,119z"/>
</g>
<g>
	<circle cx="268.9" cy="159.7" r="40.2"/>
	<path class="st0" d="M268.9,120c21.9,0,39.7,17.8,39.7,39.7s-17.8,39.7-39.7,39.7s-39.7-17.8-39.7-39.7S247,120,268.9,120
		 M268.9,119c-22.5,0-40.7,18.2-40.7,40.7c0,22.5,18.2,40.7,40.7,40.7c22.5,0,40.7-18.2,40.7-40.7C309.5,137.2,291.3,119,268.9,119
		L268.9,119z"/>
</g>
<g>
	<circle cx="199.9" cy="256.7" r="40.2"/>
	<path class="st0" d="M199.9,217c21.9,0,39.7,17.8,39.7,39.7s-17.8,39.7-39.7,39.7s-39.7-17.8-39.7-39.7S178,217,199.9,217
		 M199.9,216c-22.5,0-40.7,18.2-40.7,40.7c0,22.5,18.2,40.7,40.7,40.7c22.5,0,40.7-18.2,40.7-40.7C240.5,234.2,222.3,216,199.9,216
		L199.9,216z"/>
</g>
</svg>
